<svg width="168" height="168" viewBox="0 0 168 168" fill="none" xmlns="http://www.w3.org/2000/svg">
<path d="M44.3395 82.1804C43.6711 85.5848 44.1167 89.1065 45.4536 92.1587H47.5703C47.3475 91.1022 47.4589 89.9283 47.9045 88.8717C48.3501 87.6978 49.2414 86.6413 50.244 86.0543C50.8011 85.8196 51.4695 85.5848 52.0265 85.4674C52.5836 85.4674 53.252 85.4674 53.809 85.4674C54.8117 85.4674 55.8143 85.4674 56.817 85.4674C56.817 88.637 56.817 91.9239 56.817 95.2109C56.817 97.4413 56.817 99.7891 56.3714 102.02C55.9257 104.367 55.0345 106.48 53.6976 108.241C52.695 109.65 51.3581 110.707 49.9098 111.411H53.5862C56.7056 110.237 59.8249 108.593 62.6101 106.48C65.3952 104.485 67.8462 102.02 69.4058 98.85C70.1857 97.3239 70.6313 95.563 70.8541 93.9196C71.1883 92.1587 71.1883 90.3978 71.1883 88.637V79.4804V66.45C71.1883 62.2239 71.5225 57.9978 72.9708 54.0065C74.3077 50.3674 76.313 47.0804 78.7639 44.1457C79.7666 42.8544 80.992 41.6804 82.2175 40.6239C82.4403 40.5065 82.5517 40.3891 82.7745 40.1544L82.9973 38.3935C81.2149 39.6848 79.321 40.6239 77.2042 40.9761C75.6446 41.3283 73.9735 41.4457 72.4138 41.2109C70.4085 40.8587 68.4032 40.1544 66.5093 39.45C64.6154 38.863 62.6101 38.1587 60.6048 38.0413C58.7109 38.0413 56.817 38.3935 55.1459 39.2152C53.4748 40.037 51.9151 41.2109 50.5782 42.5022C47.0133 46.0239 44.3395 50.4848 42 54.9457H44.5623C44.8966 53.3022 46.0106 51.7761 47.4589 50.9544C48.6844 50.1326 50.244 49.8978 51.8037 50.0152C54.2546 50.25 56.5942 51.1891 59.0451 51.7761C61.496 52.363 63.947 52.5978 66.3979 51.8935C67.5119 51.6587 68.5146 51.1891 69.5172 50.7196L64.9496 54.7109C63.5013 56.0022 62.0531 57.4109 60.8276 58.937C59.6021 60.463 58.7109 62.2239 58.0424 64.2196C57.1512 66.8022 56.9284 69.6196 56.817 72.437C54.7003 72.437 52.4721 72.6717 50.5782 73.6109C48.9072 74.3152 47.4589 75.6065 46.3448 77.0152C45.3422 78.5413 44.6737 80.4196 44.3395 82.1804ZM91.13 53.1848C94.2493 55.2978 97.9257 56.5891 101.602 56.7065L78.8753 84.5283L79.2095 64.4544C79.321 61.05 79.5438 57.6457 80.5464 54.7109C81.4377 51.5413 83.1087 48.7239 85.1141 46.2587C87.2308 43.6761 89.6817 41.3283 92.244 39.45L91.3528 38.0413L90.4615 36.75C87.6764 38.863 85.0027 41.3283 82.7745 44.0283C80.5464 46.8457 78.6525 50.0152 77.5385 53.6544C76.4244 57.1761 76.2016 60.9326 76.0902 64.4544L75.5332 92.2761C75.5332 93.9196 75.5332 95.3283 75.1989 96.737C74.9761 98.1457 74.6419 99.5543 73.9735 100.846C72.8594 103.428 70.8541 105.541 68.626 107.537C66.6207 109.298 64.504 110.824 62.2759 112.35C56.5942 114.815 51.3581 118.924 47.4589 123.972C45.7878 126.32 44.2281 128.667 43.1141 131.25H46.4562C47.9045 128.785 49.9098 126.789 52.2493 125.263C54.8117 123.62 57.8196 122.563 60.8276 122.211C63.8355 121.741 66.9549 121.976 69.9629 122.68C74.8647 123.854 79.4324 126.32 83.443 129.489L98.9284 116.693C99.8196 119.393 101.045 122.093 102.828 124.207C104.499 126.437 106.615 128.198 108.955 129.372L126 115.167V111.528L118.313 117.75C116.753 116.341 115.416 114.698 114.302 112.82C112.743 110.237 111.851 107.302 111.072 104.25C110.403 101.315 109.846 98.3804 109.066 95.3283C108.175 92.0413 106.838 88.7544 105.056 85.8196C103.273 83.0022 100.934 80.4196 98.2599 78.3065C95.809 76.5457 93.1353 75.137 90.3501 74.1978L104.833 56.5891C106.95 56.3544 108.955 55.65 110.96 54.5935C113.745 53.0674 116.196 50.4848 117.645 47.4326C119.204 44.3804 119.65 40.8587 119.093 37.4544H117.533C116.976 39.6848 115.416 41.6804 113.523 42.8544C111.072 44.263 108.175 44.3804 105.501 43.5587C103.05 42.8544 100.711 41.3283 99.0398 39.2152L85.3369 56.4717L86.8965 58.2326L91.13 53.1848ZM70.6313 110.002C73.0822 107.889 75.3103 105.424 76.7586 102.254C77.5385 100.728 78.0955 99.0848 78.3183 97.3239C78.6525 95.6804 78.6525 93.9196 78.6525 92.3935L78.7639 87.6978H79.2095L80.6578 86.0543C82.8859 86.5239 85.1141 87.5804 87.1194 88.9891C89.9045 91.1022 92.0212 94.1544 93.4695 97.4413C95.0292 100.611 95.9204 104.133 96.7003 107.654C97.1459 110.002 97.5915 112.35 98.2599 114.698L95.0292 117.28C88.9019 111.998 80.6578 109.298 72.748 109.767C71.9682 109.885 71.2997 109.885 70.6313 110.002Z" fill="#FFFFFF"/>
</svg>
